<svg width="20" height="20" viewBox="0 0 20 20" fill="none" xmlns="http://www.w3.org/2000/svg">
<path d="M7.49996 18.3334C7.9602 18.3334 8.33329 17.9603 8.33329 17.5C8.33329 17.0398 7.9602 16.6667 7.49996 16.6667C7.03972 16.6667 6.66663 17.0398 6.66663 17.5C6.66663 17.9603 7.03972 18.3334 7.49996 18.3334Z" stroke="#1E1E1E" stroke-width="1.5" stroke-linecap="round" stroke-linejoin="round"/>
<path d="M16.6666 18.3334C17.1269 18.3334 17.5 17.9603 17.5 17.5C17.5 17.0398 17.1269 16.6667 16.6666 16.6667C16.2064 16.6667 15.8333 17.0398 15.8333 17.5C15.8333 17.9603 16.2064 18.3334 16.6666 18.3334Z" stroke="#1E1E1E" stroke-width="1.5" stroke-linecap="round" stroke-linejoin="round"/>
<path d="M0.833313 0.833344H4.16665L6.39998 11.9917C6.47618 12.3753 6.6849 12.72 6.9896 12.9653C7.2943 13.2105 7.67556 13.3408 8.06665 13.3333H16.1666C16.5577 13.3408 16.939 13.2105 17.2437 12.9653C17.5484 12.72 17.7571 12.3753 17.8333 11.9917L19.1666 5.00001H4.99998" stroke="#1E1E1E" stroke-width="1.5" stroke-linecap="round" stroke-linejoin="round"/>
</svg>
